# xmcd
#
# Track frame offsets:
#        150
#        20825
#        44480
#        93572
#        96332
#        122632
#        144987
#        200090
#        221075
#        223909
#        233636
#
# Disc length: 3601 seconds
#
# Revision: 0
# Processed by: cddbd v1.5PL3 Copyright (c) Steve Scherf et al.
# Submitted via: ExactAudioCopy v0.95a4
#
DISCID=ac0e0f0b
DTITLE=Skylark - Gate Of Heaven Pt.2
DYEAR=2000
DGENRE=Metal
TTITLE0=Among The Clouds
TTITLE1=Who Is God?
TTITLE2=Lady Of The Sky
TTITLE3=Monday 13 October
TTITLE4=Insanity Is The Truth
TTITLE5=The Guardian Angel
TTITLE6=The Heaven Church
TTITLE7=Last Christmas In Hell
TTITLE8=Outro
TTITLE9=A Star In The Universe(Secret Track)
TTITLE10=Belzebu(Edit Version)(Bonus Track)
EXTD=
EXTT0=
EXTT1=
EXTT2=
EXTT3=
EXTT4=
EXTT5=
EXTT6=
EXTT7=
EXTT8=
EXTT9=
EXTT10=
PLAYORDER=
